<svg width="48" height="48" viewBox="0 0 48 48" fill="none" xmlns="http://www.w3.org/2000/svg">
<path d="M18.3201 21.74C18.1201 21.72 17.8801 21.72 17.6601 21.74C12.9001 21.58 9.12012 17.68 9.12012 12.88C9.12012 7.98 13.0801 4 18.0001 4C22.9001 4 26.8801 7.98 26.8801 12.88C26.8601 17.68 23.0801 21.58 18.3201 21.74Z" stroke="#060508" stroke-width="2.5" stroke-linecap="round" stroke-linejoin="round"/>
<path d="M32.8201 8C36.7001 8 39.8201 11.14 39.8201 15C39.8201 18.78 36.8201 21.86 33.0801 22C32.9201 21.98 32.7401 21.98 32.5601 22" stroke="#060508" stroke-width="2.5" stroke-linecap="round" stroke-linejoin="round"/>
<path d="M8.31994 29.12C3.47994 32.36 3.47994 37.64 8.31994 40.86C13.8199 44.54 22.8399 44.54 28.3399 40.86C33.1799 37.62 33.1799 32.34 28.3399 29.12C22.8599 25.46 13.8399 25.46 8.31994 29.12Z" stroke="#060508" stroke-width="2.5" stroke-linecap="round" stroke-linejoin="round"/>
<path d="M36.6802 40C38.1202 39.7 39.4802 39.12 40.6002 38.26C43.7202 35.92 43.7202 32.06 40.6002 29.72C39.5002 28.88 38.1602 28.32 36.7402 28" stroke="#060508" stroke-width="2.5" stroke-linecap="round" stroke-linejoin="round"/>
</svg>
