<svg width="59" height="59" viewBox="0 0 59 59" fill="none" xmlns="http://www.w3.org/2000/svg">
<path d="M29.4945 4.92773C15.949 4.92773 4.91113 15.9656 4.91113 29.5111C4.91113 43.0565 15.949 54.0944 29.4945 54.0944C43.0399 54.0944 54.0778 43.0565 54.0778 29.5111C54.0778 15.9656 43.0399 4.92773 29.4945 4.92773ZM41.2453 23.8569L27.3065 37.7956C26.9624 38.1398 26.4953 38.3365 26.0036 38.3365C25.512 38.3365 25.0449 38.1398 24.7007 37.7956L17.7436 30.8386C17.0307 30.1256 17.0307 28.9456 17.7436 28.2327C18.4565 27.5198 19.6365 27.5198 20.3495 28.2327L26.0036 33.8869L38.6395 21.2511C39.3524 20.5381 40.5324 20.5381 41.2453 21.2511C41.9582 21.964 41.9582 23.1194 41.2453 23.8569Z" fill="#060508"/>
</svg>
